<?xml version="1.0" encoding="UTF-8" standalone="no"?>
<!-- Created with Inkscape (http://www.inkscape.org/) -->

<svg
   xmlns:dc="http://purl.org/dc/elements/1.1/"
   xmlns:cc="http://creativecommons.org/ns#"
   xmlns:rdf="http://www.w3.org/1999/02/22-rdf-syntax-ns#"
   xmlns:svg="http://www.w3.org/2000/svg"
   xmlns="http://www.w3.org/2000/svg"
   xmlns:sodipodi="http://sodipodi.sourceforge.net/DTD/sodipodi-0.dtd"
   xmlns:inkscape="http://www.inkscape.org/namespaces/inkscape"
   version="1.0"
   width="270.65799"
   height="117.357"
   viewBox="0 0 270.658 117.357"
   id="Layer_1"
   xml:space="preserve"
   sodipodi:docname="logo.svg"
   inkscape:version="0.92.4 5da689c313, 2019-01-14"><metadata
   id="metadata25"><rdf:RDF><cc:Work
       rdf:about=""><dc:format>image/svg+xml</dc:format><dc:type
         rdf:resource="http://purl.org/dc/dcmitype/StillImage" /></cc:Work></rdf:RDF></metadata><sodipodi:namedview
   pagecolor="#ffffff"
   bordercolor="#666666"
   borderopacity="1"
   objecttolerance="10"
   gridtolerance="10"
   guidetolerance="10"
   inkscape:pageopacity="0"
   inkscape:pageshadow="2"
   inkscape:window-width="1920"
   inkscape:window-height="1031"
   id="namedview23"
   showgrid="false"
   inkscape:zoom="1.0640735"
   inkscape:cx="137.20856"
   inkscape:cy="58.678501"
   inkscape:window-x="0"
   inkscape:window-y="0"
   inkscape:window-maximized="1"
   inkscape:current-layer="g236" /><defs
   id="defs275" /><g
   id="g236">
	<path
   d="m 0,51.139 c 4.08,-1.26 4.5,-4.38 4.5,-9.6 V 30.32 c 0,-4.86 3.3,-8.1 5.1,-8.1 h 4.379 v 4.44 H 11.58 c -2.16,0 -2.16,1.8 -2.16,4.56 v 11.339 c 0,7.02 -3.78,10.02 -4.56,10.5 0.78,0.48 4.56,3.48 4.56,10.56 v 11.28 c 0,2.76 0,4.559 2.16,4.559 h 2.399 v 4.44 H 9.6 c -1.8,0 -5.1,-3.239 -5.1,-8.1 v -11.16 c 0,-5.28 -0.42,-8.399 -4.5,-9.66 z"
   id="path238"
   inkscape:connector-curvature="0" />
	<path
   d="m 44.82,44.719 h 0.12 c 1.98,-2.7 4.56,-4.2 8.04,-4.2 7.8,0 9.6,5.64 9.6,12.24 v 16.739 h -4.8 V 53.599 c 0,-4.56 -0.36,-8.64 -5.939,-8.64 -6.6,0 -7.02,6.12 -7.02,11.16 v 13.379 h -4.8 V 41.299 h 4.8 v 3.42 z"
   id="path240"
   inkscape:connector-curvature="0" />
	<path
   d="m 69.18,55.458 c 0,-8.28 6.54,-14.939 14.819,-14.939 8.279,0 14.819,6.66 14.819,14.939 0,8.279 -6.599,14.82 -14.818,14.82 -8.219,0 -14.82,-6.54 -14.82,-14.82 z m 4.8,-0.06 c 0,5.76 4.08,10.44 10.02,10.44 5.939,0 10.02,-4.68 10.02,-10.44 0,-5.7 -4.08,-10.439 -10.02,-10.439 -5.94,0 -10.02,4.74 -10.02,10.439 z"
   id="path242"
   inkscape:connector-curvature="0" />
	<path
   d="m 128.58,69.498 h -4.8 V 20 h 4.8 z"
   id="path244"
   inkscape:connector-curvature="0" />
	<path
   d="m 135,55.458 c 0,-8.28 6.539,-14.939 14.819,-14.939 8.28,0 14.819,6.66 14.819,14.939 0,8.279 -6.6,14.819 -14.819,14.819 C 141.6,70.277 135,63.738 135,55.458 Z m 4.799,-0.06 c 0,5.76 4.079,10.44 10.02,10.44 5.939,0 10.02,-4.68 10.02,-10.44 0,-5.7 -4.08,-10.439 -10.02,-10.439 -5.941,0 -10.02,4.74 -10.02,10.439 z"
   id="path246"
   inkscape:connector-curvature="0" />
	<path
   d="m 196.678,68.118 c 0,4.5 0,8.399 -2.88,12.12 -2.641,3.359 -6.72,4.979 -10.92,4.979 -7.859,0 -13.68,-4.979 -13.859,-12.959 h 4.8 c 0.06,5.22 3.84,8.52 8.999,8.52 7.44,0 9.061,-5.459 9.061,-11.819 v -3.36 h -0.12 c -2.28,2.94 -6,4.68 -9.78,4.68 -8.219,0 -13.439,-6.899 -13.439,-14.759 0,-7.919 5.28,-15 13.62,-15 3.899,0 7.319,1.74 9.6,4.8 h 0.12 V 41.3 h 4.8 v 26.818 z m -23.22,-13.019 c 0,5.52 3.24,10.74 9.24,10.74 6.18,0 9.42,-4.98 9.42,-10.68 0,-5.64 -3.541,-10.2 -9.48,-10.2 -5.58,0 -9.18,4.86 -9.18,10.14 z"
   id="path248"
   inkscape:connector-curvature="0" />
	<path
   d="m 203.519,55.458 c 0,-8.28 6.539,-14.939 14.818,-14.939 8.28,0 14.82,6.66 14.82,14.939 0,8.279 -6.6,14.819 -14.82,14.819 -8.218,0.001 -14.818,-6.539 -14.818,-14.819 z m 4.799,-0.06 c 0,5.76 4.08,10.44 10.02,10.44 5.94,0 10.02,-4.68 10.02,-10.44 0,-5.7 -4.079,-10.439 -10.02,-10.439 -5.94,0 -10.02,4.74 -10.02,10.439 z"
   id="path250"
   inkscape:connector-curvature="0" />
	<path
   d="m 270.658,54.979 c -4.08,1.26 -4.5,4.38 -4.5,9.66 v 11.16 c 0,4.86 -3.3,8.1 -5.1,8.1 h -4.38 v -4.44 h 2.399 c 2.16,0 2.16,-1.799 2.16,-4.559 V 63.62 c 0,-7.08 3.779,-10.08 4.561,-10.56 -0.781,-0.48 -4.561,-3.479 -4.561,-10.5 V 31.22 c 0,-2.76 0,-4.56 -2.16,-4.56 h -2.399 v -4.44 h 4.38 c 1.8,0 5.1,3.24 5.1,8.1 v 11.219 c 0,5.22 0.42,8.34 4.5,9.6 z"
   id="path252"
   inkscape:connector-curvature="0" />
	
	
	
	
	
	
	
	
	
	
</g>
</svg>